<svg width="164" height="199" viewBox="0 0 164 199" fill="none" xmlns="http://www.w3.org/2000/svg">
<path fill-rule="evenodd" clip-rule="evenodd" d="M102.511 146.915C109.105 153.128 118.048 153.949 126.777 150.757C125.896 148.963 119.661 146.249 117.1 145.322C113.645 144.071 109.522 143.148 105.384 142.724C105.999 142.108 112.538 139.238 112.906 139.149C113.946 139.86 114.334 140.404 115.335 141.038C120.252 144.151 126.579 144.936 132.316 143.419C134.424 142.862 137.638 141.825 138.721 140.352C135.527 137.738 127.895 136.671 123.334 136.495C121.942 136.441 118.232 136.814 117.317 136.465C118.355 135.66 119.571 134.96 120.719 134.118C121.742 133.367 123.257 132.086 124.272 131.574C128.427 133.432 131.565 134.688 136.591 134.074C139.195 133.756 141.455 133.056 143.638 131.988C145.173 131.236 148.17 129.628 148.602 128.139C145.303 127.44 142.99 126.838 139.341 126.851C134.95 126.867 132.131 127.631 127.87 128.429C128.123 128.051 133.963 122.059 134.094 121.97C138.432 123.064 141.69 123.821 147.033 121.828C149.169 121.031 150.925 120.042 152.468 118.83C153.755 117.819 155.851 115.921 156.22 114.77C153.016 114.325 149.839 114.427 146.302 115.198C144.621 115.564 143.031 115.994 141.426 116.563C139.978 117.076 138.22 117.989 136.932 118.356C137.838 117.01 138.571 115.911 139.467 114.644C140.059 113.806 141.373 111.652 141.76 110.744C146.82 110.78 149.417 111.166 154.295 108.127C155.995 107.068 161.555 102.181 161.032 100.185C154.314 100.669 148.379 103.555 143.874 106.956L147.32 98.2975C151.779 97.2257 154.041 97.6672 158.157 93.9559C160.272 92.0487 163.19 88.4026 163.531 85.3781C158.68 86.1289 154.845 88.7888 151.398 91.6743L148.515 94.5288L150.345 84.942C157.536 83.2365 163.322 76.4622 163.127 70.3695C160.387 71.3085 157.766 73.2706 155.957 75.0273C154.988 75.9682 154.048 76.9095 153.259 77.8786C152.28 79.0797 151.739 80.2774 150.8 81.1578C150.698 79.6936 150.882 77.929 150.907 76.4311C151.007 70.29 149.517 72.4257 152.989 70.2612C157.603 67.3846 160.99 61.7074 160.129 55.9128C156.372 57.4237 153.315 62.3787 151.59 65.7711C151.216 66.5077 150.947 67.2206 150.475 67.6399L148.772 58.0201C151.029 55.7159 152.559 54.9791 153.941 51.7176C154.967 49.2961 155.828 45.6578 154.694 42.3113C152.983 43.294 151.175 46.2512 150.337 47.8883C149.77 48.9959 149.32 50.0332 148.9 51.2159C148.486 52.3791 148.44 53.9024 147.788 54.996L144.166 45.1732C147.554 42.1538 149.558 36.27 147.085 29.8988C145.508 31.1827 144.573 33.6685 144.026 35.5413C143.703 36.6494 143.447 37.697 143.24 38.921C143.048 40.0552 143.11 41.7584 142.911 42.609C141.842 41.6139 141.069 39.4013 140.172 38.0407C139.319 36.7466 137.977 34.9525 137.314 33.6654C138.364 31.4213 139.234 30.5538 139.501 27.1889C139.696 24.7191 139.077 21.0938 137.391 19.4009C136.392 20.2468 135.786 23.107 135.555 24.6636C135.215 26.9573 135.441 29.128 135.765 31.5358L128.335 23.4934C130.35 17.0722 129.482 15.6273 126.26 10.6063C125.194 11.8274 125.268 14.1836 125.329 15.7162C125.396 17.42 126.644 21.5237 126.427 22.1144C124.827 19.6699 119.873 17.2312 117.595 15.2496C118.442 12.3579 117.687 8.72201 115.773 6.16721C115.436 5.71791 115.101 5.3543 114.784 5.0368C114.211 4.4617 114.183 4.36141 113.612 4.19881C112.63 7.49681 114.624 11.8886 116.191 14.3592C114.634 13.8845 112.665 12.5657 111.163 11.7526C110.145 11.201 106.783 9.6455 105.722 9.455C105.377 6.6758 105.694 5.9733 104.137 3.4184C103.224 1.9207 101.731 0.3704 100.316 0C100.087 3.6038 102.608 7.0118 104.409 8.8116C101.274 7.6842 98.2882 7.22281 95.8785 6.22701C94.5242 4.7492 90.6086 2.61791 86.3225 3.58051C88.4163 6.51151 92.4036 6.8194 95.6435 6.6796C98.6769 7.6695 99.5082 7.76081 104.24 9.33051C102.199 9.58811 100.848 9.9073 99.2018 10.961C98.2209 11.5881 96.369 13.1634 96.5095 14.2418C101.014 13.995 103.091 12.2002 105.374 9.8557C107.393 10.0923 114.54 14.1058 115.916 15.1636C112.178 14.8459 107.939 16.3487 106.469 18.9384C111.082 20.57 115.911 16.6411 117.497 15.9659C118.108 16.5101 118.982 16.9952 119.739 17.5302C120.577 18.1235 121.096 18.654 121.907 19.2322C123.344 20.2571 125.062 21.6346 126.275 23.0284C121.123 22.1755 119.915 22.3083 115.369 25.1631L116.611 25.8401C117.077 25.9741 117.47 26.0472 117.963 26.112C118.976 26.2449 120.188 26.2511 121.247 26.1534C124.537 25.8496 125.243 25.0807 127.861 24.2585C129.238 26.3736 133.43 29.5263 135.04 32.7156C133.394 32.1037 131.908 31.2907 129.532 31.2699C127.418 31.2513 124.514 31.7142 123.041 33.09C124.03 34.2132 126.731 34.8023 128.71 35.05C131.535 35.4045 133.25 35.045 136.253 34.3932C137.333 35.3573 141.173 41.9487 141.768 43.6332C137.55 41.7623 136.146 39.7656 128.966 41.848C131.298 45.1228 137.795 46.0223 141.81 45.9584L142.905 46.0839C143.859 47.4272 146.192 54.0532 146.5 56.0256C143.854 53.3157 139.002 49.9389 133.208 51.6006C134.356 53.542 137.334 55.3702 139.244 56.2774C140.369 56.8119 141.617 57.3227 142.977 57.7055C144.253 58.0643 145.942 58.0601 147.097 58.586C147.783 59.6645 148.99 67.2939 148.708 68.5359C146.383 66.4509 146.989 65.6764 143.327 63.4726C141.983 62.6633 137.927 61.2182 135.667 61.7379C136.959 65.5347 143.14 69.5416 146.872 70.8798L148.797 71.608C148.836 71.6281 148.909 71.6672 148.963 71.7018C149.475 75.0719 148.745 78.4851 148.824 81.5938C148.621 81.4256 148.665 81.5053 148.435 81.1904L147.687 79.7195C146.734 77.8793 145.303 76.2392 143.792 75.0989C141.982 73.7311 139.391 72.1262 136.282 71.918C137.198 75.3404 139.447 77.7463 141.389 79.7585C144.288 82.7618 145.452 82.8227 148.287 84.8489C148.24 86.2835 147.726 88.3564 147.427 89.754L146.578 93.2639C146.567 93.2999 146.428 93.7298 146.417 93.7569C146.107 94.4667 146.319 94.0399 146.053 94.3732C145.275 90.7946 144.031 88.3155 141.928 86.1341C140.777 84.9402 136.847 81.8541 135.083 82.0491C136.071 90.6125 144.121 96.3096 145.131 97.7633C144.571 99.3916 142.455 105.412 141.207 106.641C140.725 102.867 140.99 100.712 138.542 97.107C137.155 95.0638 133.982 91.7377 132.06 91.5209C132.954 103.203 139.557 108.992 139.538 109.742C139.503 111.098 135.118 116.141 134.243 117.64C134.16 116.703 134.67 114.57 134.603 112.926C134.418 108.398 130.823 101.308 127.679 100.185C126.617 102.438 127.49 107.919 128.128 110.726C129.056 114.807 130.31 116.895 131.902 120.243C131.031 122.088 127.089 125.162 125.364 126.978C126.392 123.772 127.204 121.37 126.47 117.079C125.907 113.781 123.944 109.648 121.897 107.779C119.404 110.363 120.192 119.618 120.86 123.478C121.166 125.246 122.206 128.126 122.298 129.486C120.957 130.681 116.456 133.89 114.914 134.507C116.418 131.656 117.74 129.603 117.884 125.134C117.98 122.167 116.81 115.855 114.729 114.177C112.916 116.625 111.949 120.474 111.393 124.223C110.623 129.431 111.158 131.608 111.346 136.524C109.197 137.673 105.735 139.349 103.324 139.977C105.614 136.523 106.618 136.708 108 131.282C108.669 128.656 108.865 121.391 106.819 119.107C100.045 124.522 102.024 134.723 97.5145 141.287C97.1403 141.832 96.0435 142.5 95.9826 142.79C99.3485 144.628 100.089 145.446 102.511 146.915V146.915Z" fill="#9B7323"/>
<path fill-rule="evenodd" clip-rule="evenodd" d="M61.0202 146.915C54.4258 153.128 45.4832 153.949 36.7541 150.757C37.6348 148.963 43.8704 146.249 46.4312 145.322C49.8865 144.071 54.009 143.148 58.1471 142.724C57.5323 142.108 50.9929 139.238 50.6252 139.149C49.5854 139.86 49.1973 140.404 48.1965 141.038C43.2788 144.151 36.9524 144.936 31.2153 143.419C29.1072 142.862 25.8937 141.825 24.8098 140.352C28.0039 137.738 35.6365 136.671 40.197 136.495C41.5896 136.441 45.2993 136.814 46.214 136.465C45.1766 135.66 43.9604 134.96 42.8125 134.118C41.7888 133.367 40.2739 132.086 39.2596 131.574C35.1043 133.432 31.9665 134.688 26.9403 134.074C24.3364 133.756 22.0764 133.056 19.8936 131.988C18.3585 131.236 15.3608 129.628 14.9292 128.139C18.2279 127.44 20.5409 126.838 24.1905 126.851C28.5813 126.867 31.4007 127.631 35.6615 128.429C35.4083 128.051 29.5683 122.059 29.4372 121.97C25.099 123.064 21.8417 123.821 16.4984 121.828C14.3622 121.031 12.606 120.042 11.0629 118.83C9.77623 117.819 7.68 115.921 7.311 114.77C10.5153 114.325 13.6927 114.427 17.2297 115.198C18.9107 115.564 20.5002 115.994 22.1056 116.563C23.5536 117.076 25.3112 117.989 26.5991 118.356C25.6937 117.01 24.9602 115.911 24.0639 114.644C23.4719 113.806 22.158 111.652 21.7717 110.744C16.711 110.78 14.1139 111.166 9.23611 108.127C7.53591 107.068 1.97592 102.181 2.49902 100.185C9.21762 100.669 15.1522 103.555 19.6571 106.956L16.2113 98.2975C11.7521 97.2257 9.49062 97.6672 5.37402 93.9559C3.25882 92.0487 0.3415 88.4026 0 85.3781C4.8512 86.1289 8.68672 88.7888 12.1334 91.6743L15.0165 94.5288L13.1859 84.942C5.99511 83.2365 0.208919 76.4622 0.404419 70.3695C3.14422 71.3085 5.76512 73.2706 7.57382 75.0273C8.54362 75.9682 9.48291 76.9095 10.2726 77.8786C11.251 79.0797 11.7921 80.2774 12.7316 81.1578C12.8328 79.6936 12.649 77.929 12.6244 76.4311C12.5242 70.29 14.0138 72.4257 10.542 70.2612C5.92792 67.3846 2.54151 61.7074 3.40231 55.9128C7.15891 57.4237 10.2165 62.3787 11.9416 65.7711C12.3154 66.5077 12.5843 67.2206 13.0567 67.6399L14.7596 58.0201C12.5025 55.7159 10.9723 54.9791 9.58981 51.7176C8.56381 49.2961 7.70372 45.6578 8.83682 42.3113C10.5485 43.294 12.3558 46.2512 13.1944 47.8883C13.7611 48.9959 14.2109 50.0332 14.6314 51.2159C15.0455 52.3791 15.0912 53.9024 15.7433 54.996L19.3652 45.1732C15.9771 42.1538 13.9736 36.27 16.4466 29.8988C18.023 31.1827 18.9583 33.6685 19.5048 35.5413C19.8285 36.6494 20.084 37.697 20.2915 38.921C20.4834 40.0552 20.4212 41.7584 20.6206 42.609C21.6892 41.6139 22.4627 39.4013 23.3597 38.0407C24.2127 36.7466 25.5547 34.9525 26.2174 33.6654C25.1677 31.4213 24.2969 30.5538 24.0305 27.1889C23.8349 24.7191 24.454 21.0938 26.1402 19.4009C27.1395 20.2468 27.7455 23.107 27.9764 24.6636C28.3164 26.9573 28.0907 29.128 27.7667 31.5358L35.1961 23.4934C33.1817 17.0722 34.0488 15.6273 37.2716 10.6063C38.3376 11.8274 38.2635 14.1836 38.2019 15.7162C38.135 17.42 36.8876 21.5237 37.1038 22.1144C38.7046 19.6699 43.6583 17.2312 45.9361 15.2496C45.0892 12.3579 45.8444 8.72201 47.758 6.16721C48.0948 5.71791 48.4307 5.3543 48.7473 5.0368C49.3201 4.4617 49.3486 4.36141 49.9195 4.19881C50.9009 7.49681 48.9072 11.8886 47.3406 14.3592C48.8977 13.8845 50.8662 12.5657 52.3685 11.7526C53.3863 11.201 56.7484 9.6455 57.8092 9.455C58.1541 6.6758 57.8375 5.9733 59.394 3.4184C60.307 1.9207 61.8004 0.3704 63.215 0C63.4441 3.6038 60.9234 7.0118 59.1221 8.8116C62.257 7.6842 65.243 7.22281 67.6527 6.22701C69.007 4.7492 72.9226 2.61791 77.2088 3.58051C75.1149 6.51151 71.1276 6.8194 67.8877 6.6796C64.8543 7.6695 64.023 7.76081 59.2914 9.33051C61.3322 9.58811 62.6833 9.9073 64.3294 10.961C65.3103 11.5881 67.1622 13.1634 67.0217 14.2418C62.5168 13.995 60.4405 12.2002 58.1576 9.8557C56.1388 10.0923 48.9913 14.1058 47.6153 15.1636C51.3534 14.8459 55.5921 16.3487 57.0625 18.9384C52.4493 20.57 47.6203 16.6411 46.0338 15.9659C45.4236 16.5101 44.5493 16.9952 43.7926 17.5302C42.9538 18.1235 42.4357 18.654 41.6247 19.2322C40.1873 20.2571 38.4688 21.6346 37.2563 23.0284C42.408 22.1755 43.6159 22.3083 48.1625 25.1631L46.9199 25.8401C46.4539 25.9741 46.0612 26.0472 45.568 26.112C44.5551 26.2449 43.3435 26.2511 42.2845 26.1534C38.9941 25.8496 38.2887 25.0807 35.6702 24.2585C34.2933 26.3736 30.1011 29.5263 28.491 32.7156C30.1369 32.1037 31.6234 31.2907 33.9994 31.2699C36.1134 31.2513 39.0173 31.7142 40.4906 33.09C39.5011 34.2132 36.8004 34.8023 34.8217 35.05C31.9965 35.4045 30.281 35.045 27.278 34.3932C26.1985 35.3573 22.3578 41.9487 21.7633 43.6332C25.981 41.7623 27.3854 39.7656 34.565 41.848C32.2333 45.1228 25.7364 46.0223 21.7214 45.9584L20.6261 46.0839C19.6724 47.4272 17.339 54.0532 17.0312 56.0256C19.6773 53.3157 24.5288 49.9389 30.3228 51.6006C29.1756 53.542 26.1972 55.3702 24.2872 56.2774C23.1623 56.8119 21.9139 57.3227 20.5544 57.7055C19.2781 58.0643 17.5894 58.0601 16.4347 58.586C15.7482 59.6645 14.5414 67.2939 14.8233 68.5359C17.1485 66.4509 16.5426 65.6764 20.2047 63.4726C21.5488 62.6633 25.6048 61.2182 27.8641 61.7379C26.5728 65.5347 20.3916 69.5416 16.6589 70.8798L14.7342 71.608C14.6954 71.6281 14.622 71.6672 14.5683 71.7018C14.056 75.0719 14.7857 78.4851 14.7075 81.5938C14.9102 81.4256 14.8663 81.5053 15.0966 81.1904L15.8441 79.7195C16.7971 77.8793 18.2286 76.2392 19.7389 75.0989C21.5495 73.7311 24.1401 72.1262 27.2492 71.918C26.3335 75.3404 24.0842 77.7463 22.1425 79.7585C19.2436 82.7618 18.0796 82.8227 15.2443 84.8489C15.291 86.2835 15.805 88.3564 16.1039 89.754L16.9535 93.2639C16.9641 93.2999 17.1028 93.7298 17.1145 93.7569C17.4241 94.4667 17.2122 94.0399 17.4778 94.3732C18.2568 90.7946 19.4998 88.3155 21.6033 86.1341C22.7545 84.9402 26.6843 81.8541 28.4483 82.0491C27.4599 90.6125 19.4102 96.3096 18.4007 97.7633C18.9601 99.3916 21.0762 105.412 22.324 106.641C22.806 102.867 22.5411 100.712 24.9891 97.107C26.3759 95.0638 29.5497 91.7377 31.4708 91.5209C30.5771 103.203 23.9744 108.992 23.9932 109.742C24.0281 111.098 28.4128 116.141 29.2884 117.64C29.3709 116.703 28.8611 114.57 28.9285 112.926C29.1136 108.398 32.7081 101.308 35.8523 100.185C36.9145 102.438 36.0415 107.919 35.4032 110.726C34.4752 114.807 33.2211 116.895 31.6292 120.243C32.5007 122.088 36.4423 125.162 38.1674 126.978C37.1392 123.772 36.3274 121.37 37.0608 117.079C37.6246 113.781 39.5875 109.648 41.6339 107.779C44.1273 110.363 43.3393 119.618 42.6711 123.478C42.3651 125.246 41.3256 128.126 41.2333 129.486C42.5744 130.681 47.0749 133.89 48.6171 134.507C47.1134 131.656 45.7916 129.603 45.6471 125.134C45.5509 122.167 46.7211 115.855 48.8027 114.177C50.6157 116.625 51.5826 120.474 52.1381 124.223C52.9087 129.431 52.3735 131.608 52.1851 136.524C54.3338 137.673 57.7964 139.349 60.2074 139.977C57.917 136.523 56.913 136.708 55.5311 131.282C54.8619 128.656 54.6659 121.391 56.7124 119.107C60.2136 121.906 62.9346 130.805 63.885 136.536C64.4425 139.9 66.4016 140.731 66.6725 142.029C64.059 143.937 63.244 144.82 61.0202 146.915V146.915Z" fill="#9B7323"/>
<path fill-rule="evenodd" clip-rule="evenodd" d="M81.4203 161.433C84.5291 155.159 88.7066 151.06 93.8743 148.979C88.7066 146.897 84.5291 142.799 81.4203 136.524C78.3116 142.799 74.1341 146.897 68.9663 148.979C74.1341 151.06 78.3116 155.159 81.4203 161.433Z" fill="#9B7323"/>
<path fill-rule="evenodd" clip-rule="evenodd" d="M57.9851 46.0838V56.0644C60.5205 55.1693 61.071 54.1121 65.0142 53.8837H91.0167L56.7217 92.7529V100.184H106.809V90.2034C104.274 91.1538 103.501 92.212 99.7807 92.3846H71.9597L105.323 53.5154V46.0838H57.9851Z" fill="#9B7323"/>
<path fill-rule="evenodd" clip-rule="evenodd" d="M92.8831 184.211L81.4202 184.211L79.6515 188.488L87.8987 188.488V193.119C86.0012 193.666 84.1037 193.955 82.271 193.955C79.2158 193.955 76.8039 193.248 75.0351 191.833C73.2664 190.418 72.3661 188.488 72.3661 186.044C72.3661 183.632 73.2342 181.703 75.0029 180.32C76.7717 178.905 79.1836 178.197 82.2388 178.197C84.829 178.197 87.327 178.707 89.7321 179.724C90.1635 179.906 90.7966 180.234 91.2221 180.449L93.0411 176.05C89.4074 174.667 85.5832 173.889 82.0779 173.889C74.7014 173.889 66.4976 177.651 66.4976 186.044C66.4976 194.42 74.6327 198.425 82.0779 198.425C85.7763 198.425 89.3778 197.653 92.8831 196.142V184.211Z" fill="#9B7323"/>
<path fill-rule="evenodd" clip-rule="evenodd" d="M37.7272 174.467V179.596L40.88 178.873H52.2463L36.7546 194.116V197.879H60.7516V192.75L57.7964 193.473H44.9464L60.1084 178.23V174.467H37.7272Z" fill="#9B7323"/>
<path fill-rule="evenodd" clip-rule="evenodd" d="M126.619 184.211L115.156 184.211L113.387 188.488L121.635 188.488V193.119C119.737 193.666 117.84 193.955 116.007 193.955C112.952 193.955 110.54 193.248 108.771 191.833C107.002 190.418 106.102 188.488 106.102 186.044C106.102 183.632 106.97 181.703 108.739 180.32C110.508 178.905 112.92 178.197 115.975 178.197C118.565 178.197 121.063 178.707 123.468 179.724C123.899 179.906 124.532 180.234 124.958 180.449L126.777 176.05C123.143 174.667 119.319 173.889 115.814 173.889C108.437 173.889 100.234 177.651 100.234 186.044C100.234 194.42 108.369 198.425 115.814 198.425C119.512 198.425 123.114 197.653 126.619 196.142V184.211Z" fill="#9B7323"/>
</svg>
